<svg xmlns="http://www.w3.org/2000/svg" width="940" height="460" viewBox="0 0 940 460">
<rect width="100%" height="100%" fill="white"/>
<text x="470.0" y="30.0" text-anchor="middle" font-size="18" fill="#222">AntMaze budget</text>
<text x="267.5" y="52.0" text-anchor="middle" font-size="13" fill="#222">Navigate</text>
<line x1="72.0" y1="58" x2="72.0" y2="340" stroke="#333" stroke-width="1"/>
<line x1="72.0" y1="340" x2="463.0" y2="340" stroke="#333" stroke-width="1"/>
<line x1="68.0" y1="340.0" x2="463.0" y2="340.0" stroke="#e5e5e5" stroke-width="1"/>
<text x="62.0" y="344.0" text-anchor="end" font-size="12" fill="#333">0.0</text>
<line x1="68.0" y1="283.6" x2="463.0" y2="283.6" stroke="#e5e5e5" stroke-width="1"/>
<text x="62.0" y="287.6" text-anchor="end" font-size="12" fill="#333">0.2</text>
<line x1="68.0" y1="227.2" x2="463.0" y2="227.2" stroke="#e5e5e5" stroke-width="1"/>
<text x="62.0" y="231.2" text-anchor="end" font-size="12" fill="#333">0.4</text>
<line x1="68.0" y1="170.8" x2="463.0" y2="170.8" stroke="#e5e5e5" stroke-width="1"/>
<text x="62.0" y="174.8" text-anchor="end" font-size="12" fill="#333">0.6</text>
<line x1="68.0" y1="114.4" x2="463.0" y2="114.4" stroke="#e5e5e5" stroke-width="1"/>
<text x="62.0" y="118.4" text-anchor="end" font-size="12" fill="#333">0.8</text>
<line x1="68.0" y1="58.0" x2="463.0" y2="58.0" stroke="#e5e5e5" stroke-width="1"/>
<text x="62.0" y="62.0" text-anchor="end" font-size="12" fill="#333">1.0</text>
<line x1="72.0" y1="340" x2="72.0" y2="345" stroke="#333" stroke-width="1"/>
<text x="72.0" y="362" text-anchor="middle" font-size="11" fill="#333">6</text>
<line x1="151.7" y1="340" x2="151.7" y2="345" stroke="#333" stroke-width="1"/>
<text x="151.7" y="362" text-anchor="middle" font-size="11" fill="#333">12</text>
<line x1="231.4" y1="340" x2="231.4" y2="345" stroke="#333" stroke-width="1"/>
<text x="231.4" y="362" text-anchor="middle" font-size="11" fill="#333">24</text>
<line x1="303.6" y1="340" x2="303.6" y2="345" stroke="#333" stroke-width="1"/>
<text x="303.6" y="362" text-anchor="middle" font-size="11" fill="#333">45</text>
<line x1="383.3" y1="340" x2="383.3" y2="345" stroke="#333" stroke-width="1"/>
<text x="383.3" y="362" text-anchor="middle" font-size="11" fill="#333">90</text>
<line x1="463.0" y1="340" x2="463.0" y2="345" stroke="#333" stroke-width="1"/>
<text x="463.0" y="362" text-anchor="middle" font-size="11" fill="#333">180</text>
<text x="267.5" y="388.0" text-anchor="middle" font-size="13" fill="#222"><tspan x="267.5" dy="0">Planning</tspan><tspan x="267.5" dy="15">sweeps</tspan></text>
<polyline points="72.0,246.1 151.7,151.9 231.4,76.9 303.6,58.0 383.3,58.0" fill="none" stroke="#4C78A8" stroke-width="2.6"/>
<circle cx="72.0" cy="246.1" r="4" fill="#4C78A8"/>
<circle cx="151.7" cy="151.9" r="4" fill="#4C78A8"/>
<circle cx="231.4" cy="76.9" r="4" fill="#4C78A8"/>
<circle cx="303.6" cy="58.0" r="4" fill="#4C78A8"/>
<text x="303.6" y="49.0" text-anchor="middle" font-size="10" fill="#222">1.000</text>
<circle cx="383.3" cy="58.0" r="4" fill="#4C78A8"/>
<text x="383.3" y="49.0" text-anchor="middle" font-size="10" fill="#222">1.000</text>
<rect x="67.0" y="53.0" width="10" height="10" fill="#F58518"/>
<text x="90.0" y="49.0" text-anchor="start" font-size="10" fill="#222">1.000</text>
<circle cx="463.0" cy="58.0" r="4" fill="#72B7B2"/>
<text x="716.5" y="52.0" text-anchor="middle" font-size="13" fill="#222">Stitch</text>
<line x1="521.0" y1="58" x2="521.0" y2="340" stroke="#333" stroke-width="1"/>
<line x1="521.0" y1="340" x2="912.0" y2="340" stroke="#333" stroke-width="1"/>
<line x1="517.0" y1="340.0" x2="912.0" y2="340.0" stroke="#e5e5e5" stroke-width="1"/>
<line x1="517.0" y1="283.6" x2="912.0" y2="283.6" stroke="#e5e5e5" stroke-width="1"/>
<line x1="517.0" y1="227.2" x2="912.0" y2="227.2" stroke="#e5e5e5" stroke-width="1"/>
<line x1="517.0" y1="170.8" x2="912.0" y2="170.8" stroke="#e5e5e5" stroke-width="1"/>
<line x1="517.0" y1="114.4" x2="912.0" y2="114.4" stroke="#e5e5e5" stroke-width="1"/>
<line x1="517.0" y1="58.0" x2="912.0" y2="58.0" stroke="#e5e5e5" stroke-width="1"/>
<line x1="521.0" y1="340" x2="521.0" y2="345" stroke="#333" stroke-width="1"/>
<text x="521.0" y="362" text-anchor="middle" font-size="11" fill="#333">6</text>
<line x1="600.7" y1="340" x2="600.7" y2="345" stroke="#333" stroke-width="1"/>
<text x="600.7" y="362" text-anchor="middle" font-size="11" fill="#333">12</text>
<line x1="680.4" y1="340" x2="680.4" y2="345" stroke="#333" stroke-width="1"/>
<text x="680.4" y="362" text-anchor="middle" font-size="11" fill="#333">24</text>
<line x1="752.6" y1="340" x2="752.6" y2="345" stroke="#333" stroke-width="1"/>
<text x="752.6" y="362" text-anchor="middle" font-size="11" fill="#333">45</text>
<line x1="832.3" y1="340" x2="832.3" y2="345" stroke="#333" stroke-width="1"/>
<text x="832.3" y="362" text-anchor="middle" font-size="11" fill="#333">90</text>
<line x1="912.0" y1="340" x2="912.0" y2="345" stroke="#333" stroke-width="1"/>
<text x="912.0" y="362" text-anchor="middle" font-size="11" fill="#333">180</text>
<text x="716.5" y="388.0" text-anchor="middle" font-size="13" fill="#222"><tspan x="716.5" dy="0">Planning</tspan><tspan x="716.5" dy="15">sweeps</tspan></text>
<polyline points="521.0,246.1 600.7,151.9 680.4,76.9 752.6,58.0 832.3,58.0" fill="none" stroke="#4C78A8" stroke-width="2.6"/>
<circle cx="521.0" cy="246.1" r="4" fill="#4C78A8"/>
<circle cx="600.7" cy="151.9" r="4" fill="#4C78A8"/>
<circle cx="680.4" cy="76.9" r="4" fill="#4C78A8"/>
<circle cx="752.6" cy="58.0" r="4" fill="#4C78A8"/>
<text x="752.6" y="49.0" text-anchor="middle" font-size="10" fill="#222">1.000</text>
<circle cx="832.3" cy="58.0" r="4" fill="#4C78A8"/>
<text x="832.3" y="49.0" text-anchor="middle" font-size="10" fill="#222">1.000</text>
<rect x="516.0" y="53.0" width="10" height="10" fill="#F58518"/>
<text x="539.0" y="49.0" text-anchor="start" font-size="10" fill="#222">1.000</text>
<circle cx="912.0" cy="58.0" r="4" fill="#72B7B2"/>
<text x="18" y="199.0" transform="rotate(-90 18 199.0)" text-anchor="middle" font-size="13" fill="#333">Success rate</text>
<line x1="72" y1="430" x2="90" y2="430" stroke="#4C78A8" stroke-width="3"/>
<circle cx="81" cy="430" r="4" fill="#4C78A8"/>
<text x="96" y="434" font-size="13" fill="#222">Bellman</text>
<rect x="306" y="425" width="10" height="10" fill="#F58518"/>
<text x="326" y="434" font-size="13" fill="#222">Stochastic TRL at 6</text>
<circle cx="541" cy="430" r="4" fill="#72B7B2"/>
<text x="556" y="434" font-size="13" fill="#222">Bellman full</text>
</svg>
