<svg xmlns="http://www.w3.org/2000/svg" width="860" height="430" viewBox="0 0 860 430">
<rect width="100%" height="100%" fill="white"/>
<text x="430.0" y="28.0" text-anchor="middle" font-size="18" fill="#222"><tspan x="430.0" dy="0">AntMaze body-candidate</tspan><tspan x="430.0" dy="20">multi-seed screen</tspan></text>
<line x1="72" y1="54" x2="72" y2="322" stroke="#333" stroke-width="1"/>
<line x1="72" y1="322" x2="836" y2="322" stroke="#333" stroke-width="1"/>
<line x1="67" y1="322.0" x2="836" y2="322.0" stroke="#e5e5e5" stroke-width="1"/>
<text x="62" y="326.0" text-anchor="end" font-size="12" fill="#333">0.0</text>
<line x1="67" y1="268.4" x2="836" y2="268.4" stroke="#e5e5e5" stroke-width="1"/>
<text x="62" y="272.4" text-anchor="end" font-size="12" fill="#333">0.2</text>
<line x1="67" y1="214.8" x2="836" y2="214.8" stroke="#e5e5e5" stroke-width="1"/>
<text x="62" y="218.8" text-anchor="end" font-size="12" fill="#333">0.4</text>
<line x1="67" y1="161.2" x2="836" y2="161.2" stroke="#e5e5e5" stroke-width="1"/>
<text x="62" y="165.2" text-anchor="end" font-size="12" fill="#333">0.6</text>
<line x1="67" y1="107.6" x2="836" y2="107.6" stroke="#e5e5e5" stroke-width="1"/>
<text x="62" y="111.6" text-anchor="end" font-size="12" fill="#333">0.8</text>
<line x1="67" y1="54.0" x2="836" y2="54.0" stroke="#e5e5e5" stroke-width="1"/>
<text x="62" y="58.0" text-anchor="end" font-size="12" fill="#333">1.0</text>
<text x="18" y="188.0" transform="rotate(-90 18 188.0)" text-anchor="middle" font-size="13" fill="#333">Success rate</text>
<rect x="176.0" y="229.0" width="47.6" height="93.0" fill="#4C78A8"/>
<line x1="199.8" y1="210.8" x2="199.8" y2="247.2" stroke="#222" stroke-width="1.4"/>
<line x1="192.8" y1="210.8" x2="206.8" y2="210.8" stroke="#222" stroke-width="1.4"/>
<line x1="192.8" y1="247.2" x2="206.8" y2="247.2" stroke="#222" stroke-width="1.4"/>
<text x="199.8" y="221.0" text-anchor="middle" font-size="11" fill="#222">0.347</text>
<rect x="234.0" y="82.7" width="47.6" height="239.3" fill="#F58518"/>
<line x1="257.8" y1="77.6" x2="257.8" y2="87.8" stroke="#222" stroke-width="1.4"/>
<line x1="250.8" y1="77.6" x2="264.8" y2="77.6" stroke="#222" stroke-width="1.4"/>
<line x1="250.8" y1="87.8" x2="264.8" y2="87.8" stroke="#222" stroke-width="1.4"/>
<text x="257.8" y="74.7" text-anchor="middle" font-size="11" fill="#222">0.893</text>
<rect x="292.0" y="82.7" width="47.6" height="239.3" fill="#72B7B2"/>
<line x1="315.8" y1="77.6" x2="315.8" y2="87.8" stroke="#222" stroke-width="1.4"/>
<line x1="308.8" y1="77.6" x2="322.8" y2="77.6" stroke="#222" stroke-width="1.4"/>
<line x1="308.8" y1="87.8" x2="322.8" y2="87.8" stroke="#222" stroke-width="1.4"/>
<text x="315.8" y="74.7" text-anchor="middle" font-size="11" fill="#222">0.893</text>
<text x="263.0" y="346.0" text-anchor="middle" font-size="13" fill="#222">Navigate</text>
<rect x="558.0" y="232.8" width="47.6" height="89.2" fill="#4C78A8"/>
<line x1="581.8" y1="212.7" x2="581.8" y2="252.9" stroke="#222" stroke-width="1.4"/>
<line x1="574.8" y1="212.7" x2="588.8" y2="212.7" stroke="#222" stroke-width="1.4"/>
<line x1="574.8" y1="252.9" x2="588.8" y2="252.9" stroke="#222" stroke-width="1.4"/>
<text x="581.8" y="224.8" text-anchor="middle" font-size="11" fill="#222">0.333</text>
<rect x="616.0" y="78.9" width="47.6" height="243.1" fill="#F58518"/>
<line x1="639.8" y1="68.7" x2="639.8" y2="89.1" stroke="#222" stroke-width="1.4"/>
<line x1="632.8" y1="68.7" x2="646.8" y2="68.7" stroke="#222" stroke-width="1.4"/>
<line x1="632.8" y1="89.1" x2="646.8" y2="89.1" stroke="#222" stroke-width="1.4"/>
<text x="639.8" y="70.9" text-anchor="middle" font-size="11" fill="#222">0.907</text>
<rect x="674.0" y="78.9" width="47.6" height="243.1" fill="#72B7B2"/>
<line x1="697.8" y1="68.7" x2="697.8" y2="89.1" stroke="#222" stroke-width="1.4"/>
<line x1="690.8" y1="68.7" x2="704.8" y2="68.7" stroke="#222" stroke-width="1.4"/>
<line x1="690.8" y1="89.1" x2="704.8" y2="89.1" stroke="#222" stroke-width="1.4"/>
<text x="697.8" y="70.9" text-anchor="middle" font-size="11" fill="#222">0.907</text>
<text x="645.0" y="346.0" text-anchor="middle" font-size="13" fill="#222">Stitch</text>
<rect x="72" y="382" width="14" height="14" fill="#4C78A8"/>
<text x="92" y="394" font-size="13" fill="#222">Bellman matched</text>
<rect x="292" y="382" width="14" height="14" fill="#F58518"/>
<text x="312" y="394" font-size="13" fill="#222">Stochastic TRL</text>
<rect x="512" y="382" width="14" height="14" fill="#72B7B2"/>
<text x="532" y="394" font-size="13" fill="#222">Bellman full</text>
</svg>
