<svg xmlns="http://www.w3.org/2000/svg" width="940" height="440" viewBox="0 0 940 440">
<rect width="100%" height="100%" fill="white"/>
<text x="470.0" y="30.0" text-anchor="middle" font-size="18" fill="#222"><tspan x="470.0" dy="0">2D stochastic</tspan><tspan x="470.0" dy="20">shortcut grid scaling</tspan></text>
<text x="263.5" y="52.0" text-anchor="middle" font-size="13" fill="#222">p=0.02</text>
<line x1="64.0" y1="58" x2="64.0" y2="354" stroke="#333" stroke-width="1"/>
<line x1="64.0" y1="354" x2="463.0" y2="354" stroke="#333" stroke-width="1"/>
<line x1="60.0" y1="354.0" x2="463.0" y2="354.0" stroke="#e5e5e5" stroke-width="1"/>
<text x="54.0" y="358.0" text-anchor="end" font-size="12" fill="#333">0.0</text>
<line x1="60.0" y1="294.8" x2="463.0" y2="294.8" stroke="#e5e5e5" stroke-width="1"/>
<text x="54.0" y="298.8" text-anchor="end" font-size="12" fill="#333">0.2</text>
<line x1="60.0" y1="235.6" x2="463.0" y2="235.6" stroke="#e5e5e5" stroke-width="1"/>
<text x="54.0" y="239.6" text-anchor="end" font-size="12" fill="#333">0.4</text>
<line x1="60.0" y1="176.4" x2="463.0" y2="176.4" stroke="#e5e5e5" stroke-width="1"/>
<text x="54.0" y="180.4" text-anchor="end" font-size="12" fill="#333">0.6</text>
<line x1="60.0" y1="117.2" x2="463.0" y2="117.2" stroke="#e5e5e5" stroke-width="1"/>
<text x="54.0" y="121.2" text-anchor="end" font-size="12" fill="#333">0.8</text>
<line x1="60.0" y1="58.0" x2="463.0" y2="58.0" stroke="#e5e5e5" stroke-width="1"/>
<text x="54.0" y="62.0" text-anchor="end" font-size="12" fill="#333">1.0</text>
<text x="64.0" y="376.0" text-anchor="middle" font-size="12" fill="#333">31</text>
<text x="263.5" y="376.0" text-anchor="middle" font-size="12" fill="#333">63</text>
<text x="463.0" y="376.0" text-anchor="middle" font-size="12" fill="#333">127</text>
<text x="263.5" y="402.0" text-anchor="middle" font-size="13" fill="#222"><tspan x="263.5" dy="0">Safe</tspan><tspan x="263.5" dy="15">path length</tspan></text>
<polyline points="64.0,347.5 263.5,347.5 463.0,347.5" fill="none" stroke="#54A24B" stroke-width="2.4"/>
<circle cx="64.0" cy="347.5" r="4" fill="#54A24B"/>
<circle cx="263.5" cy="347.5" r="4" fill="#54A24B"/>
<circle cx="463.0" cy="347.5" r="4" fill="#54A24B"/>
<polyline points="64.0,347.5 263.5,347.5 463.0,347.5" fill="none" stroke="#4C78A8" stroke-width="2.4"/>
<circle cx="64.0" cy="347.5" r="4" fill="#4C78A8"/>
<circle cx="263.5" cy="347.5" r="4" fill="#4C78A8"/>
<circle cx="463.0" cy="347.5" r="4" fill="#4C78A8"/>
<polyline points="64.0,58.0 263.5,58.0 463.0,58.0" fill="none" stroke="#F58518" stroke-width="2.4"/>
<circle cx="64.0" cy="58.0" r="4" fill="#F58518"/>
<text x="64.0" y="49.0" text-anchor="middle" font-size="10" fill="#222">1.000</text>
<circle cx="263.5" cy="58.0" r="4" fill="#F58518"/>
<text x="263.5" y="49.0" text-anchor="middle" font-size="10" fill="#222">1.000</text>
<circle cx="463.0" cy="58.0" r="4" fill="#F58518"/>
<text x="463.0" y="49.0" text-anchor="middle" font-size="10" fill="#222">1.000</text>
<polyline points="64.0,58.0 263.5,58.0 463.0,58.0" fill="none" stroke="#72B7B2" stroke-width="2.4"/>
<circle cx="64.0" cy="58.0" r="4" fill="#72B7B2"/>
<text x="64.0" y="49.0" text-anchor="middle" font-size="10" fill="#222">1.000</text>
<circle cx="263.5" cy="58.0" r="4" fill="#72B7B2"/>
<text x="263.5" y="49.0" text-anchor="middle" font-size="10" fill="#222">1.000</text>
<circle cx="463.0" cy="58.0" r="4" fill="#72B7B2"/>
<text x="463.0" y="49.0" text-anchor="middle" font-size="10" fill="#222">1.000</text>
<text x="716.5" y="52.0" text-anchor="middle" font-size="13" fill="#222">p=0.05</text>
<line x1="517.0" y1="58" x2="517.0" y2="354" stroke="#333" stroke-width="1"/>
<line x1="517.0" y1="354" x2="916.0" y2="354" stroke="#333" stroke-width="1"/>
<line x1="513.0" y1="354.0" x2="916.0" y2="354.0" stroke="#e5e5e5" stroke-width="1"/>
<line x1="513.0" y1="294.8" x2="916.0" y2="294.8" stroke="#e5e5e5" stroke-width="1"/>
<line x1="513.0" y1="235.6" x2="916.0" y2="235.6" stroke="#e5e5e5" stroke-width="1"/>
<line x1="513.0" y1="176.4" x2="916.0" y2="176.4" stroke="#e5e5e5" stroke-width="1"/>
<line x1="513.0" y1="117.2" x2="916.0" y2="117.2" stroke="#e5e5e5" stroke-width="1"/>
<line x1="513.0" y1="58.0" x2="916.0" y2="58.0" stroke="#e5e5e5" stroke-width="1"/>
<text x="517.0" y="376.0" text-anchor="middle" font-size="12" fill="#333">31</text>
<text x="716.5" y="376.0" text-anchor="middle" font-size="12" fill="#333">63</text>
<text x="916.0" y="376.0" text-anchor="middle" font-size="12" fill="#333">127</text>
<text x="716.5" y="402.0" text-anchor="middle" font-size="13" fill="#222"><tspan x="716.5" dy="0">Safe</tspan><tspan x="716.5" dy="15">path length</tspan></text>
<polyline points="517.0,338.6 716.5,339.8 916.0,339.2" fill="none" stroke="#54A24B" stroke-width="2.4"/>
<circle cx="517.0" cy="338.6" r="4" fill="#54A24B"/>
<circle cx="716.5" cy="339.8" r="4" fill="#54A24B"/>
<circle cx="916.0" cy="339.2" r="4" fill="#54A24B"/>
<polyline points="517.0,338.6 716.5,339.8 916.0,339.2" fill="none" stroke="#4C78A8" stroke-width="2.4"/>
<circle cx="517.0" cy="338.6" r="4" fill="#4C78A8"/>
<circle cx="716.5" cy="339.8" r="4" fill="#4C78A8"/>
<circle cx="916.0" cy="339.2" r="4" fill="#4C78A8"/>
<polyline points="517.0,58.0 716.5,58.0 916.0,58.0" fill="none" stroke="#F58518" stroke-width="2.4"/>
<circle cx="517.0" cy="58.0" r="4" fill="#F58518"/>
<text x="517.0" y="49.0" text-anchor="middle" font-size="10" fill="#222">1.000</text>
<circle cx="716.5" cy="58.0" r="4" fill="#F58518"/>
<text x="716.5" y="49.0" text-anchor="middle" font-size="10" fill="#222">1.000</text>
<circle cx="916.0" cy="58.0" r="4" fill="#F58518"/>
<text x="916.0" y="49.0" text-anchor="middle" font-size="10" fill="#222">1.000</text>
<polyline points="517.0,58.0 716.5,58.0 916.0,58.0" fill="none" stroke="#72B7B2" stroke-width="2.4"/>
<circle cx="517.0" cy="58.0" r="4" fill="#72B7B2"/>
<text x="517.0" y="49.0" text-anchor="middle" font-size="10" fill="#222">1.000</text>
<circle cx="716.5" cy="58.0" r="4" fill="#72B7B2"/>
<text x="716.5" y="49.0" text-anchor="middle" font-size="10" fill="#222">1.000</text>
<circle cx="916.0" cy="58.0" r="4" fill="#72B7B2"/>
<text x="916.0" y="49.0" text-anchor="middle" font-size="10" fill="#222">1.000</text>
<text x="17" y="206.0" transform="rotate(-90 17 206.0)" text-anchor="middle" font-size="13" fill="#333">Success rate</text>
<line x1="64" y1="406" x2="82" y2="406" stroke="#54A24B" stroke-width="3"/>
<circle cx="73" cy="406" r="4" fill="#54A24B"/>
<text x="88" y="410" font-size="13" fill="#222">MC positive</text>
<line x1="254" y1="406" x2="272" y2="406" stroke="#4C78A8" stroke-width="3"/>
<circle cx="263" cy="406" r="4" fill="#4C78A8"/>
<text x="278" y="410" font-size="13" fill="#222">Bellman matched</text>
<line x1="444" y1="406" x2="462" y2="406" stroke="#F58518" stroke-width="3"/>
<circle cx="453" cy="406" r="4" fill="#F58518"/>
<text x="468" y="410" font-size="13" fill="#222">Stochastic TRL</text>
<line x1="634" y1="406" x2="652" y2="406" stroke="#72B7B2" stroke-width="3"/>
<circle cx="643" cy="406" r="4" fill="#72B7B2"/>
<text x="658" y="410" font-size="13" fill="#222">Bellman full</text>
</svg>
