<svg xmlns="http://www.w3.org/2000/svg" width="760" height="420" viewBox="0 0 760 420">
<rect width="100%" height="100%" fill="white"/>
<text x="380.0" y="28.0" text-anchor="middle" font-size="18" fill="#222"><tspan x="380.0" dy="0">PointMaze seeded</tspan><tspan x="380.0" dy="20">matched-budget graph planner</tspan></text>
<line x1="72" y1="54" x2="72" y2="328" stroke="#333" stroke-width="1"/>
<line x1="72" y1="328" x2="736" y2="328" stroke="#333" stroke-width="1"/>
<line x1="67" y1="328.0" x2="736" y2="328.0" stroke="#e5e5e5" stroke-width="1"/>
<text x="62" y="332.0" text-anchor="end" font-size="12" fill="#333">0.0</text>
<line x1="67" y1="273.2" x2="736" y2="273.2" stroke="#e5e5e5" stroke-width="1"/>
<text x="62" y="277.2" text-anchor="end" font-size="12" fill="#333">0.2</text>
<line x1="67" y1="218.4" x2="736" y2="218.4" stroke="#e5e5e5" stroke-width="1"/>
<text x="62" y="222.4" text-anchor="end" font-size="12" fill="#333">0.4</text>
<line x1="67" y1="163.6" x2="736" y2="163.6" stroke="#e5e5e5" stroke-width="1"/>
<text x="62" y="167.6" text-anchor="end" font-size="12" fill="#333">0.6</text>
<line x1="67" y1="108.8" x2="736" y2="108.8" stroke="#e5e5e5" stroke-width="1"/>
<text x="62" y="112.8" text-anchor="end" font-size="12" fill="#333">0.8</text>
<line x1="67" y1="54.0" x2="736" y2="54.0" stroke="#e5e5e5" stroke-width="1"/>
<text x="62" y="58.0" text-anchor="end" font-size="12" fill="#333">1.0</text>
<text x="18" y="191.0" transform="rotate(-90 18 191.0)" text-anchor="middle" font-size="13" fill="#333">Success rate</text>
<rect x="143.7" y="268.8" width="78.0" height="59.2" fill="#4C78A8"/>
<line x1="182.7" y1="261.8" x2="182.7" y2="275.8" stroke="#222" stroke-width="1.5"/>
<line x1="174.7" y1="261.8" x2="190.7" y2="261.8" stroke="#222" stroke-width="1.5"/>
<line x1="174.7" y1="275.8" x2="190.7" y2="275.8" stroke="#222" stroke-width="1.5"/>
<text x="182.7" y="260.8" text-anchor="middle" font-size="12" fill="#222">0.216</text>
<text x="182.7" y="350.0" text-anchor="middle" font-size="12" fill="#222"><tspan x="182.7" dy="0">Bellman</tspan><tspan x="182.7" dy="14">matched</tspan></text>
<rect x="365.0" y="230.7" width="78.0" height="97.3" fill="#F58518"/>
<line x1="404.0" y1="222.5" x2="404.0" y2="238.8" stroke="#222" stroke-width="1.5"/>
<line x1="396.0" y1="222.5" x2="412.0" y2="222.5" stroke="#222" stroke-width="1.5"/>
<line x1="396.0" y1="238.8" x2="412.0" y2="238.8" stroke="#222" stroke-width="1.5"/>
<text x="404.0" y="222.7" text-anchor="middle" font-size="12" fill="#222">0.355</text>
<text x="404.0" y="350.0" text-anchor="middle" font-size="12" fill="#222">Stochastic TRL</text>
<rect x="586.3" y="218.0" width="78.0" height="110.0" fill="#72B7B2"/>
<line x1="625.3" y1="207.6" x2="625.3" y2="228.3" stroke="#222" stroke-width="1.5"/>
<line x1="617.3" y1="207.6" x2="633.3" y2="207.6" stroke="#222" stroke-width="1.5"/>
<line x1="617.3" y1="228.3" x2="633.3" y2="228.3" stroke="#222" stroke-width="1.5"/>
<text x="625.3" y="210.0" text-anchor="middle" font-size="12" fill="#222">0.402</text>
<text x="625.3" y="350.0" text-anchor="middle" font-size="12" fill="#222">Bellman full</text>
</svg>
