<svg xmlns="http://www.w3.org/2000/svg" width="820" height="430" viewBox="0 0 820 430">
<rect width="100%" height="100%" fill="white"/>
<text x="410.0" y="28.0" text-anchor="middle" font-size="18" fill="#222"><tspan x="410.0" dy="0">Long-horizon safe-optimal</tspan><tspan x="410.0" dy="20">stochastic shortcut</tspan></text>
<line x1="72" y1="54" x2="72" y2="322" stroke="#333" stroke-width="1"/>
<line x1="72" y1="322" x2="792" y2="322" stroke="#333" stroke-width="1"/>
<line x1="67" y1="322.0" x2="792" y2="322.0" stroke="#e5e5e5" stroke-width="1"/>
<text x="62" y="326.0" text-anchor="end" font-size="12" fill="#333">0.0</text>
<line x1="67" y1="268.4" x2="792" y2="268.4" stroke="#e5e5e5" stroke-width="1"/>
<text x="62" y="272.4" text-anchor="end" font-size="12" fill="#333">0.2</text>
<line x1="67" y1="214.8" x2="792" y2="214.8" stroke="#e5e5e5" stroke-width="1"/>
<text x="62" y="218.8" text-anchor="end" font-size="12" fill="#333">0.4</text>
<line x1="67" y1="161.2" x2="792" y2="161.2" stroke="#e5e5e5" stroke-width="1"/>
<text x="62" y="165.2" text-anchor="end" font-size="12" fill="#333">0.6</text>
<line x1="67" y1="107.6" x2="792" y2="107.6" stroke="#e5e5e5" stroke-width="1"/>
<text x="62" y="111.6" text-anchor="end" font-size="12" fill="#333">0.8</text>
<line x1="67" y1="54.0" x2="792" y2="54.0" stroke="#e5e5e5" stroke-width="1"/>
<text x="62" y="58.0" text-anchor="end" font-size="12" fill="#333">1.0</text>
<text x="18" y="188.0" transform="rotate(-90 18 188.0)" text-anchor="middle" font-size="13" fill="#333">Success rate</text>
<rect x="168.0" y="317.5" width="45.9" height="4.5" fill="#54A24B"/>
<text x="191.0" y="309.5" text-anchor="middle" font-size="11" fill="#222">0.017</text>
<rect x="224.0" y="317.5" width="45.9" height="4.5" fill="#4C78A8"/>
<text x="247.0" y="309.5" text-anchor="middle" font-size="11" fill="#222">0.017</text>
<rect x="280.0" y="54.0" width="45.9" height="268.0" fill="#F58518"/>
<text x="303.0" y="46.0" text-anchor="middle" font-size="11" fill="#222">1.000</text>
<text x="252.0" y="346.0" text-anchor="middle" font-size="13" fill="#222">p=0.02</text>
<rect x="528.0" y="311.7" width="45.9" height="10.3" fill="#54A24B"/>
<text x="551.0" y="303.7" text-anchor="middle" font-size="11" fill="#222">0.038</text>
<rect x="584.0" y="311.7" width="45.9" height="10.3" fill="#4C78A8"/>
<text x="607.0" y="303.7" text-anchor="middle" font-size="11" fill="#222">0.038</text>
<rect x="640.0" y="54.0" width="45.9" height="268.0" fill="#F58518"/>
<text x="663.0" y="46.0" text-anchor="middle" font-size="11" fill="#222">1.000</text>
<text x="612.0" y="346.0" text-anchor="middle" font-size="13" fill="#222">p=0.05</text>
<rect x="72" y="382" width="14" height="14" fill="#54A24B"/>
<text x="92" y="394" font-size="13" fill="#222">MC positive</text>
<rect x="292" y="382" width="14" height="14" fill="#4C78A8"/>
<text x="312" y="394" font-size="13" fill="#222">Bellman matched</text>
<rect x="512" y="382" width="14" height="14" fill="#F58518"/>
<text x="532" y="394" font-size="13" fill="#222">Stochastic TRL</text>
</svg>
